<?xml version="1.0" encoding="UTF-8"?>
<!DOCTYPE svg PUBLIC "-//W3C//DTD SVG 1.1//EN" "http://www.w3.org/Graphics/SVG/1.1/DTD/svg11.dtd">
<!-- Creator: CorelDRAW -->
<svg xmlns="http://www.w3.org/2000/svg" xml:space="preserve" width="215.9mm" height="279.4mm" style="shape-rendering:geometricPrecision; text-rendering:geometricPrecision; image-rendering:optimizeQuality; fill-rule:evenodd; clip-rule:evenodd"
viewBox="0 0 215.9 279.4"
 xmlns:xlink="http://www.w3.org/1999/xlink">
 <defs>
  <style type="text/css">
   <![CDATA[
    .fil0 {fill:none}
    .fil2 {fill:#3BB3C2}
    .fil3 {fill:#3BB3C2;fill-rule:nonzero}
    .fil1 {fill:#4D485B;fill-rule:nonzero}
   ]]>
  </style>
 </defs>
 <g id="Layer_x0020_1">
  <metadata id="CorelCorpID_0Corel-Layer"/>
  <g id="_43662384">
   <polygon id="_43838920" class="fil0" points="73.5954,125.22 143.839,125.22 143.839,157.149 73.5954,157.149 "/>
   <g>
    <g>
     <path id="_43823280" class="fil1" d="M80.4063 150.027c0,-0.359 0.0508,-0.6226 0.1525,-0.791 0.1017,-0.1683 0.2662,-0.2748 0.4937,-0.3194 0.0906,-0.0163 0.1691,-0.0244 0.2355,-0.0244 0.2556,0 0.4509,0.0959 0.5857,0.2875 0.1349,0.1917 0.2024,0.4741 0.2024,0.8473 0,0.359 -0.0508,0.6232 -0.1526,0.7926 -0.1016,0.1693 -0.2661,0.2753 -0.4936,0.3179 -0.0906,0.0162 -0.1691,0.0244 -0.2355,0.0244 -0.2557,0 -0.4509,-0.0959 -0.5857,-0.2876 -0.1349,-0.1916 -0.2024,-0.4741 -0.2024,-0.8473zm0.2537 0c0,0.3185 0.0468,0.5477 0.1404,0.6876 0.0936,0.14 0.2411,0.2099 0.4423,0.2099 0.1812,0 0.3226,-0.0593 0.4242,-0.1779 0.1017,-0.1187 0.1525,-0.2946 0.1525,-0.5279 0,-0.3996 -0.0432,-0.6805 -0.1298,-0.8427 -0.0866,-0.1623 -0.2356,-0.2434 -0.4469,-0.2434 -0.1993,0 -0.3462,0.0699 -0.4408,0.2099 -0.0946,0.1399 -0.1419,0.3681 -0.1419,0.6845zm1.7573 1.4969l0 -1.9441c0,-0.0406 0.0095,-0.0766 0.0287,-0.108 0.019,-0.0314 0.0498,-0.0472 0.0921,-0.0472 0.0382,0 0.0683,0.0142 0.0905,0.0426 0.0121,0.0142 0.0191,0.0294 0.0211,0.0457l0.0091 0.0121 0 0.0244 0 0.0274 0 0.0213c0.0342,-0.0502 0.085,-0.0918 0.1525,-0.1248 0.0674,-0.0324 0.1454,-0.0487 0.234,-0.0487 0.2214,0 0.3819,0.0781 0.4815,0.2338 0.0997,0.1557 0.1495,0.4112 0.1495,0.7677 0,0.2424 -0.0528,0.4244 -0.159,0.5466 -0.1062,0.1222 -0.2551,0.1831 -0.4474,0.1831 -0.1318,0 -0.243,-0.0315 -0.3331,-0.0943l-0.0151 -0.0122 -0.0207 -0.0152 -0.0151 -0.0122 -0.006 -0.0091 -0.0211 -0.0274 0 0.0213 0 0.0213 0 0.0578 0 0.4472c0,0.1014 -0.0373,0.1521 -0.1117,0.1521 -0.0865,0 -0.1298,-0.0537 -0.1298,-0.1612zm0.2324 -1.2109c0,0.2039 0.0257,0.3514 0.077,0.4417 0.0513,0.0907 0.1344,0.1425 0.2491,0.1546 0.0363,0.0041 0.0625,0.0061 0.0785,0.0061 0.1249,0 0.218,-0.0426 0.2793,-0.1283 0.0614,-0.0857 0.0921,-0.2211 0.0921,-0.4066 0,-0.2444 -0.0211,-0.4168 -0.0629,-0.5167 -0.0418,-0.0999 -0.1197,-0.1643 -0.2334,-0.1927 -0.0162,-0.0021 -0.0313,-0.0051 -0.0454,-0.0092 -0.0115,-0.002 -0.0277,-0.003 -0.0478,-0.003 -0.014,0 -0.0287,0.001 -0.0448,0.003 -0.006,0 -0.0221,0.0031 -0.0478,0.0092 -0.1021,0.0243 -0.1751,0.0745 -0.2189,0.1501 -0.0437,0.075 -0.0659,0.2043 -0.0659,0.3879l-0.0091 0.1039zm2.3763 0.0609l-0.8122 0c-0.0181,0 -0.0282,0.001 -0.0302,0.003 -0.004,0.0041 -0.006,0.0173 -0.006,0.0396 0,0.0223 0,0.0441 0,0.0654 0,0.0213 0,0.0431 0,0.0654 0,0.0994 0.0277,0.1815 0.0836,0.2464 0.0553,0.0649 0.1263,0.1065 0.2133,0.1248 0.0343,0.006 0.0674,0.0091 0.0997,0.0091 0.1393,0 0.2506,-0.069 0.3336,-0.2069 0.0261,-0.0426 0.0463,-0.0705 0.0604,-0.0837 0.0141,-0.0131 0.0332,-0.0218 0.0573,-0.0258 0.0383,-0.0102 0.0705,-0.0021 0.0957,0.0243 0.0251,0.0264 0.0336,0.0609 0.0256,0.1035 -0.002,0.0284 -0.0171,0.0659 -0.0452,0.1125 -0.0282,0.0467 -0.0605,0.0872 -0.0967,0.1217 -0.0885,0.0893 -0.1983,0.144 -0.3291,0.1643 -0.0241,0.002 -0.0473,0.0046 -0.0695,0.0076 -0.0221,0.0031 -0.0462,0.0046 -0.0724,0.0046 -0.4026,0 -0.6039,-0.288 -0.6039,-0.8641 0,-0.292 0.0529,-0.5065 0.1586,-0.6434 0.1056,-0.1369 0.2621,-0.2054 0.4695,-0.2054 0.1872,0 0.3321,0.0614 0.4348,0.1841 0.1026,0.1227 0.1539,0.3057 0.1539,0.5491l0 0.0578c0,0.0609 -0.005,0.0994 -0.0151,0.1156 -0.01,0.0163 -0.0352,0.0264 -0.0754,0.0305l-0.0303 0zm-0.1937 -0.213c0.0388,0 0.0609,-0.0051 0.0669,-0.0152 0.006,-0.0122 0.0091,-0.0477 0.0091,-0.1065l-0.006 -0.0578c-0.0182,-0.1055 -0.0569,-0.1866 -0.1153,-0.2434 -0.0583,-0.0568 -0.1333,-0.0852 -0.2244,-0.0852 -0.0443,0 -0.083,0.0051 -0.1153,0.0152 -0.1353,0.0365 -0.2204,0.1369 -0.2546,0.3012l-0.0091 0.0609c-0.0019,0.0162 -0.0034,0.0334 -0.0045,0.0517 -0.001,0.0183 -0.0015,0.0294 -0.0015,0.0335 0,0.0223 0.0041,0.0355 0.0121,0.0395 0.006,0.0041 0.0221,0.0061 0.0488,0.0061l0.5938 0zm0.6376 0.864l0 -1.4355c0,-0.0613 0.0201,-0.1039 0.0604,-0.1283 0.0201,-0.0141 0.0433,-0.0212 0.0695,-0.0212 0.0442,0 0.0765,0.0202 0.0965,0.0608l0.0151 0.0426 0 0.0669c0.0141,-0.0228 0.0308,-0.0416 0.0498,-0.0573 0.0192,-0.0157 0.0489,-0.0329 0.0892,-0.0527 0.0402,-0.0198 0.0865,-0.0345 0.1388,-0.0446 0.0524,-0.0107 0.0996,-0.0157 0.1419,-0.0157 0.157,0 0.2829,0.0496 0.3774,0.1495 0.0947,0.0994 0.142,0.2282 0.142,0.3869l0 1.0177c0,0.0735 -0.0181,0.1222 -0.0543,0.1466 -0.0202,0.0142 -0.0433,0.0213 -0.0695,0.0213 -0.0503,0 -0.0846,-0.0213 -0.1026,-0.0639 -0.0082,-0.0163 -0.0121,-0.0477 -0.0121,-0.0949l0 -0.9786c0,-0.1116 -0.0202,-0.1947 -0.061,-0.25 -0.0402,-0.0547 -0.1086,-0.0902 -0.2058,-0.1065 -0.0287,-0.004 -0.0508,-0.0061 -0.0669,-0.0061 -0.0121,0 -0.0241,0 -0.0362,0 -0.0161,0.0041 -0.0282,0.0061 -0.0362,0.0061 -0.1963,0.0386 -0.2945,0.1557 -0.2945,0.3514l0 0.9898c0,0.073 -0.0236,0.1202 -0.0714,0.1405 -0.0161,0.0081 -0.0337,0.0122 -0.0538,0.0122 -0.0418,0 -0.0735,-0.0173 -0.0957,-0.0518 -0.0135,-0.0243 -0.0206,-0.0527 -0.0206,-0.0852zm2.3189 -0.2099c0,-0.0831 0.0383,-0.1247 0.1147,-0.1247 0.0061,0 0.0182,0.002 0.0363,0.0061 0.0181,0.004 0.0337,0.0116 0.0468,0.0228 0.0131,0.0111 0.0297,0.0269 0.0498,0.0471 0.0725,0.067 0.152,0.1136 0.2386,0.14 0.0664,0.0182 0.1267,0.0274 0.1811,0.0274 0.0926,0 0.1686,-0.0188 0.228,-0.0563 0.0593,-0.0375 0.0971,-0.0877 0.1132,-0.1506 0.0081,-0.0365 0.0121,-0.0619 0.0121,-0.0761 0,-0.1257 -0.0816,-0.2069 -0.2446,-0.2434l-0.1177 -0.0273 -0.0484 -0.0092 -0.0906 -0.0182c-0.159,-0.0365 -0.2752,-0.0898 -0.3487,-0.1598 -0.0734,-0.0699 -0.1102,-0.1607 -0.1102,-0.2722 0,-0.0325 0.003,-0.067 0.0091,-0.1035 0.0181,-0.1115 0.0795,-0.2048 0.1842,-0.2799 0.1047,-0.075 0.2335,-0.1126 0.3864,-0.1126 0.0161,0 0.0333,0 0.0513,0 0.0242,0.0041 0.0464,0.0071 0.0665,0.0092 0.0202,0.002 0.0463,0.0071 0.0785,0.0152 0.0322,0.0081 0.0634,0.0182 0.0936,0.0304 0.1026,0.0385 0.1772,0.0852 0.2234,0.14 0.0403,0.0466 0.0554,0.0922 0.0454,0.1369 -0.0157,0.0588 -0.0519,0.0882 -0.1083,0.0882 -0.0156,0 -0.0271,-0.002 -0.0346,-0.0061l-0.0353 -0.0182 -0.0519 -0.0426c-0.0341,-0.0284 -0.0659,-0.0502 -0.0941,-0.0655 -0.0286,-0.0152 -0.0598,-0.0278 -0.0945,-0.038 -0.0041,-0.002 -0.0131,-0.0045 -0.0277,-0.0076 -0.0141,-0.003 -0.0292,-0.0061 -0.0453,-0.0091 -0.0167,-0.0031 -0.0428,-0.0046 -0.0796,-0.0046 -0.0442,0 -0.0849,0.0061 -0.1218,0.0183 -0.0362,0.0121 -0.0709,0.0304 -0.1031,0.0547 -0.0588,0.0467 -0.0886,0.1035 -0.0886,0.1704 0,0.073 0.0323,0.1278 0.0967,0.1643 0.0262,0.0162 0.0513,0.0279 0.0755,0.035 0.0241,0.0071 0.0694,0.0177 0.1359,0.0319l0.0785 0.0183 0.0905 0.0182c0.312,0.0751 0.468,0.2272 0.468,0.4564 0,0.0507 -0.007,0.1034 -0.0211,0.1582 -0.0282,0.1136 -0.0946,0.2059 -0.1993,0.2769 -0.1047,0.071 -0.2355,0.1065 -0.3925,0.1065 -0.0423,0 -0.0926,-0.0036 -0.151,-0.0107 -0.0583,-0.0071 -0.1198,-0.0248 -0.1842,-0.0532 -0.1067,-0.0487 -0.1852,-0.0974 -0.2355,-0.1461 -0.0503,-0.0487 -0.0755,-0.0943 -0.0755,-0.1369zm1.4674 -0.5111c0,-0.2758 0.0383,-0.4761 0.1147,-0.6009 0.0766,-0.1247 0.2054,-0.2033 0.3866,-0.2358 0.0202,-0.002 0.0402,-0.0045 0.0603,-0.0076 0.0202,-0.003 0.0433,-0.0045 0.0695,-0.0045 0.0343,0 0.0619,0.002 0.0831,0.006 0.0211,0.0041 0.0367,0.0061 0.0467,0.0061 0.1893,0.0345 0.3191,0.1253 0.3896,0.2723 0.0704,0.1471 0.1057,0.395 0.1057,0.7439 0,0.2008 -0.0408,0.3529 -0.1223,0.4564 -0.0816,0.1034 -0.2058,0.1703 -0.373,0.2008 -0.0382,0.0081 -0.0815,0.0121 -0.1298,0.0121 -0.0262,0 -0.0523,0 -0.0785,0 -0.0241,-0.0061 -0.0413,-0.0101 -0.0513,-0.0121 -0.1812,-0.0325 -0.31,-0.1106 -0.3866,-0.2343 -0.0764,-0.1237 -0.1147,-0.3245 -0.1147,-0.6024zm0.2386 0l0 0.1004c0,0.1907 0.0322,0.3271 0.0972,0.4092 0.0644,0.0821 0.1624,0.1232 0.2938,0.1232 0.1313,0 0.2295,-0.0411 0.2939,-0.1232 0.0649,-0.0821 0.0972,-0.2185 0.0972,-0.4092l0 -0.2038c0,-0.1887 -0.0323,-0.3241 -0.0972,-0.4062 -0.0644,-0.0822 -0.1626,-0.1232 -0.2939,-0.1232 -0.1314,0 -0.2294,0.041 -0.2938,0.1232 -0.065,0.0821 -0.0972,0.2175 -0.0972,0.4062l0 0.1034zm1.3437 0.3468l0 -1.0587c0,-0.0325 0.0049,-0.0599 0.0151,-0.0822 0.01,-0.0223 0.0241,-0.0395 0.0422,-0.0517 0.0181,-0.0122 0.0382,-0.0182 0.0604,-0.0182 0.0423,0 0.0745,0.0182 0.0966,0.0547 0.0141,0.0244 0.0212,0.0558 0.0212,0.0943l0 1.0375c0,0.1034 0.0292,0.1835 0.0875,0.2403 0.0584,0.0568 0.1409,0.0852 0.2476,0.0852 0.2335,0 0.3503,-0.1293 0.3503,-0.3874l0 -0.9507c0,-0.1161 0.0422,-0.1739 0.1268,-0.1739 0.0312,0 0.0564,0.0086 0.0759,0.0258 0.0197,0.0173 0.0318,0.0391 0.0357,0.0654l0 0.0614 0 1.4289c0,0.0573 -0.018,0.0979 -0.0547,0.1222 -0.0228,0.0162 -0.0494,0.0243 -0.0795,0.0243 -0.0428,0 -0.0726,-0.0152 -0.0892,-0.0456l-0.0029 -0.0091 -0.0061 -0.0183 -0.006 -0.0213 0 -0.0152 0 -0.0213 0 -0.0213 -0.0333 0.0457 -0.009 0.0091 -0.0151 0.0091c-0.0765,0.0588 -0.1822,0.0882 -0.3171,0.0882 -0.0704,0 -0.1318,-0.0071 -0.1842,-0.0213 -0.0523,-0.0142 -0.1006,-0.0365 -0.1449,-0.0669 -0.0744,-0.0507 -0.1293,-0.1105 -0.1645,-0.1795 -0.0353,-0.069 -0.0528,-0.1521 -0.0528,-0.2495zm1.552 0.3712l0 -1.4421c0,-0.0994 0.0377,-0.1491 0.1131,-0.1491 0.0357,-0.004 0.065,0.0061 0.0881,0.0304 0.0227,0.0244 0.0343,0.0599 0.0343,0.1065l0 0.0305 0 0.0121c0.02,-0.0385 0.0498,-0.0715 0.0895,-0.0989 0.0393,-0.0273 0.0806,-0.0456 0.1227,-0.0547 0.0428,-0.0091 0.0791,-0.0137 0.1093,-0.0137 0.012,0 0.0282,0.002 0.0488,0.0061 0.0765,0.0121 0.1344,0.0345 0.1726,0.0669 0.0387,0.0325 0.0579,0.0669 0.0579,0.1035 0,0.0324 -0.0105,0.0593 -0.0317,0.0806 -0.0211,0.0213 -0.0458,0.0319 -0.074,0.0319 -0.008,0 -0.0181,-0.002 -0.0302,-0.0061l-0.0816 -0.0304c-0.0301,-0.0122 -0.0583,-0.0182 -0.0844,-0.0182 -0.0081,0 -0.0262,0.002 -0.0544,0.006 -0.0826,0.0122 -0.1439,0.0477 -0.1842,0.1065 -0.0403,0.0588 -0.0603,0.1471 -0.0603,0.2647l0 0.9705c0,0.0548 -0.0207,0.0944 -0.062,0.1187 -0.0226,0.0122 -0.0442,0.0183 -0.0649,0.0183 -0.0578,0 -0.0941,-0.0274 -0.1086,-0.0822l0 -0.0578zm0.8755 -0.7058l0 -0.2008c0,-0.2069 0.0574,-0.3722 0.1722,-0.4959 0.1147,-0.1238 0.2576,-0.1856 0.4287,-0.1856 0.0523,0 0.0992,0.004 0.1403,0.0121 0.0413,0.0082 0.0882,0.0244 0.1405,0.0487 0.0926,0.0406 0.164,0.0913 0.2143,0.1521 0.0444,0.0528 0.0665,0.1035 0.0665,0.1522 0,0.0081 -0.002,0.0202 -0.006,0.0365 -0.0161,0.0486 -0.0503,0.073 -0.1027,0.073 -0.012,0 -0.0256,-0.002 -0.0407,-0.0061 -0.0151,-0.0041 -0.0318,-0.0142 -0.0498,-0.0304l-0.0484 -0.0578 -0.0362 -0.0426c-0.0765,-0.0751 -0.1621,-0.1126 -0.2566,-0.1126 -0.0202,0 -0.0353,0.001 -0.0454,0.003 -0.1107,0.0142 -0.1942,0.0614 -0.2506,0.1415 -0.0564,0.0801 -0.0845,0.2013 -0.0845,0.3636 0,0.2758 0.0252,0.468 0.0755,0.5765 0.0503,0.1085 0.1399,0.1699 0.2687,0.1841 0.0101,0.002 0.0261,0.003 0.0483,0.003 0.0282,0 0.0594,-0.005 0.0937,-0.0152 0.0623,-0.0182 0.1096,-0.0446 0.1418,-0.0791 0.0322,-0.0345 0.0645,-0.0923 0.0966,-0.1734l0.0182 -0.0487c0.006,-0.0203 0.0195,-0.0375 0.0407,-0.0517 0.0211,-0.0142 0.0418,-0.0213 0.0619,-0.0213 0.0403,0 0.0695,0.0132 0.0875,0.0396 0.0182,0.0263 0.0272,0.0567 0.0272,0.0912 0,0.0325 -0.0065,0.067 -0.0196,0.1035 -0.013,0.0365 -0.0341,0.0781 -0.0644,0.1247 -0.1082,0.1684 -0.2627,0.2525 -0.463,0.2525 -0.2239,0 -0.3894,-0.0659 -0.4956,-0.1977 -0.1062,-0.1319 -0.1591,-0.3448 -0.1591,-0.6389zm2.5122 0.0578l-0.8123 0c-0.018,0 -0.0281,0.001 -0.0301,0.003 -0.0041,0.0041 -0.0061,0.0173 -0.0061,0.0396 0,0.0223 0,0.0441 0,0.0654 0,0.0213 0,0.0431 0,0.0654 0,0.0994 0.0277,0.1815 0.0836,0.2464 0.0554,0.0649 0.1263,0.1065 0.2134,0.1248 0.0342,0.006 0.0674,0.0091 0.0996,0.0091 0.1393,0 0.2506,-0.069 0.3337,-0.2069 0.0261,-0.0426 0.0462,-0.0705 0.0603,-0.0837 0.0141,-0.0131 0.0333,-0.0218 0.0574,-0.0258 0.0383,-0.0102 0.0704,-0.0021 0.0956,0.0243 0.0252,0.0264 0.0337,0.0609 0.0256,0.1035 -0.0019,0.0284 -0.017,0.0659 -0.0452,0.1125 -0.0282,0.0467 -0.0604,0.0872 -0.0967,0.1217 -0.0885,0.0893 -0.1983,0.144 -0.3291,0.1643 -0.0241,0.002 -0.0473,0.0046 -0.0694,0.0076 -0.0222,0.0031 -0.0463,0.0046 -0.0725,0.0046 -0.4025,0 -0.6039,-0.288 -0.6039,-0.8641 0,-0.292 0.0529,-0.5065 0.1586,-0.6434 0.1056,-0.1369 0.2621,-0.2054 0.4695,-0.2054 0.1872,0 0.3321,0.0614 0.4348,0.1841 0.1026,0.1227 0.1539,0.3057 0.1539,0.5491l0 0.0578c0,0.0609 -0.0049,0.0994 -0.015,0.1156 -0.0101,0.0163 -0.0353,0.0264 -0.0755,0.0305l-0.0302 0zm-0.1938 -0.213c0.0388,0 0.061,-0.0051 0.0669,-0.0152 0.0061,-0.0122 0.0092,-0.0477 0.0092,-0.1065l-0.0061 -0.0578c-0.0182,-0.1055 -0.0569,-0.1866 -0.1152,-0.2434 -0.0584,-0.0568 -0.1334,-0.0852 -0.2245,-0.0852 -0.0443,0 -0.083,0.0051 -0.1152,0.0152 -0.1354,0.0365 -0.2204,0.1369 -0.2547,0.3012l-0.009 0.0609c-0.002,0.0162 -0.0035,0.0334 -0.0046,0.0517 -0.001,0.0183 -0.0015,0.0294 -0.0015,0.0335 0,0.0223 0.0041,0.0355 0.0121,0.0395 0.0061,0.0041 0.0222,0.0061 0.0489,0.0061l0.5937 0zm1.3834 0.6541c0,-0.0831 0.0383,-0.1247 0.1147,-0.1247 0.0061,0 0.0182,0.002 0.0364,0.0061 0.018,0.004 0.0336,0.0116 0.0467,0.0228 0.0131,0.0111 0.0297,0.0269 0.0498,0.0471 0.0725,0.067 0.152,0.1136 0.2386,0.14 0.0664,0.0182 0.1267,0.0274 0.1811,0.0274 0.0926,0 0.1686,-0.0188 0.228,-0.0563 0.0593,-0.0375 0.0972,-0.0877 0.1132,-0.1506 0.0081,-0.0365 0.0121,-0.0619 0.0121,-0.0761 0,-0.1257 -0.0815,-0.2069 -0.2446,-0.2434l-0.1177 -0.0273 -0.0483 -0.0092 -0.0906 -0.0182c-0.159,-0.0365 -0.2753,-0.0898 -0.3488,-0.1598 -0.0734,-0.0699 -0.1102,-0.1607 -0.1102,-0.2722 0,-0.0325 0.003,-0.067 0.0091,-0.1035 0.0181,-0.1115 0.0795,-0.2048 0.1842,-0.2799 0.1047,-0.075 0.2335,-0.1126 0.3864,-0.1126 0.0161,0 0.0333,0 0.0513,0 0.0243,0.0041 0.0464,0.0071 0.0665,0.0092 0.0202,0.002 0.0463,0.0071 0.0785,0.0152 0.0322,0.0081 0.0635,0.0182 0.0936,0.0304 0.1026,0.0385 0.1772,0.0852 0.2234,0.14 0.0403,0.0466 0.0554,0.0922 0.0454,0.1369 -0.0157,0.0588 -0.0519,0.0882 -0.1083,0.0882 -0.0156,0 -0.0271,-0.002 -0.0346,-0.0061l-0.0353 -0.0182 -0.0519 -0.0426c-0.0341,-0.0284 -0.0659,-0.0502 -0.0941,-0.0655 -0.0286,-0.0152 -0.0598,-0.0278 -0.0945,-0.038 -0.0041,-0.002 -0.0131,-0.0045 -0.0277,-0.0076 -0.0141,-0.003 -0.0292,-0.0061 -0.0453,-0.0091 -0.0166,-0.0031 -0.0427,-0.0046 -0.0796,-0.0046 -0.0442,0 -0.0849,0.0061 -0.1217,0.0183 -0.0363,0.0121 -0.071,0.0304 -0.1032,0.0547 -0.0588,0.0467 -0.0886,0.1035 -0.0886,0.1704 0,0.073 0.0323,0.1278 0.0967,0.1643 0.0262,0.0162 0.0513,0.0279 0.0755,0.035 0.0241,0.0071 0.0694,0.0177 0.1359,0.0319l0.0785 0.0183 0.0905 0.0182c0.312,0.0751 0.468,0.2272 0.468,0.4564 0,0.0507 -0.007,0.1034 -0.0211,0.1582 -0.0282,0.1136 -0.0946,0.2059 -0.1993,0.2769 -0.1047,0.071 -0.2355,0.1065 -0.3925,0.1065 -0.0423,0 -0.0926,-0.0036 -0.151,-0.0107 -0.0583,-0.0071 -0.1197,-0.0248 -0.1842,-0.0532 -0.1066,-0.0487 -0.1851,-0.0974 -0.2355,-0.1461 -0.0503,-0.0487 -0.0755,-0.0943 -0.0755,-0.1369zm1.54 -0.1643l0 -1.0587c0,-0.0325 0.0049,-0.0599 0.0151,-0.0822 0.01,-0.0223 0.0241,-0.0395 0.0422,-0.0517 0.0181,-0.0122 0.0383,-0.0182 0.0604,-0.0182 0.0423,0 0.0745,0.0182 0.0967,0.0547 0.014,0.0244 0.0211,0.0558 0.0211,0.0943l0 1.0375c0,0.1034 0.0292,0.1835 0.0875,0.2403 0.0584,0.0568 0.141,0.0852 0.2476,0.0852 0.2335,0 0.3503,-0.1293 0.3503,-0.3874l0 -0.9507c0,-0.1161 0.0423,-0.1739 0.1268,-0.1739 0.0312,0 0.0564,0.0086 0.0759,0.0258 0.0197,0.0173 0.0318,0.0391 0.0358,0.0654l0 0.0614 0 1.4289c0,0.0573 -0.0181,0.0979 -0.0548,0.1222 -0.0228,0.0162 -0.0494,0.0243 -0.0795,0.0243 -0.0428,0 -0.0726,-0.0152 -0.0891,-0.0456l-0.003 -0.0091 -0.0061 -0.0183 -0.006 -0.0213 0 -0.0152 0 -0.0213 0 -0.0213 -0.0333 0.0457 -0.009 0.0091 -0.0151 0.0091c-0.0765,0.0588 -0.1822,0.0882 -0.3171,0.0882 -0.0704,0 -0.1318,-0.0071 -0.1842,-0.0213 -0.0523,-0.0142 -0.1006,-0.0365 -0.1449,-0.0669 -0.0744,-0.0507 -0.1293,-0.1105 -0.1645,-0.1795 -0.0352,-0.069 -0.0528,-0.1521 -0.0528,-0.2495zm1.552 0.8732l0 -1.9441c0,-0.0406 0.0095,-0.0766 0.0286,-0.108 0.0191,-0.0314 0.0499,-0.0472 0.0921,-0.0472 0.0383,0 0.0684,0.0142 0.0906,0.0426 0.0121,0.0142 0.0191,0.0294 0.0211,0.0457l0.009 0.0121 0 0.0244 0 0.0274 0 0.0213c0.0343,-0.0502 0.0851,-0.0918 0.1526,-0.1248 0.0674,-0.0324 0.1454,-0.0487 0.234,-0.0487 0.2214,0 0.3819,0.0781 0.4815,0.2338 0.0997,0.1557 0.1495,0.4112 0.1495,0.7677 0,0.2424 -0.0528,0.4244 -0.159,0.5466 -0.1062,0.1222 -0.2552,0.1831 -0.4474,0.1831 -0.1318,0 -0.2431,-0.0315 -0.3332,-0.0943l-0.015 -0.0122 -0.0207 -0.0152 -0.0151 -0.0122 -0.006 -0.0091 -0.0212 -0.0274 0 0.0213 0 0.0213 0 0.0578 0 0.4472c0,0.1014 -0.0372,0.1521 -0.1116,0.1521 -0.0866,0 -0.1298,-0.0537 -0.1298,-0.1612zm0.2324 -1.2109c0,0.2039 0.0257,0.3514 0.077,0.4417 0.0513,0.0907 0.1344,0.1425 0.2491,0.1546 0.0362,0.0041 0.0624,0.0061 0.0785,0.0061 0.1249,0 0.218,-0.0426 0.2793,-0.1283 0.0614,-0.0857 0.0921,-0.2211 0.0921,-0.4066 0,-0.2444 -0.0211,-0.4168 -0.0629,-0.5167 -0.0418,-0.0999 -0.1197,-0.1643 -0.2335,-0.1927 -0.0161,-0.0021 -0.0312,-0.0051 -0.0453,-0.0092 -0.0115,-0.002 -0.0277,-0.003 -0.0478,-0.003 -0.014,0 -0.0287,0.001 -0.0448,0.003 -0.0061,0 -0.0221,0.0031 -0.0478,0.0092 -0.1022,0.0243 -0.1751,0.0745 -0.2189,0.1501 -0.0437,0.075 -0.066,0.2043 -0.066,0.3879l-0.009 0.1039zm1.3528 1.2109l0 -1.9441c0,-0.0406 0.0095,-0.0766 0.0287,-0.108 0.019,-0.0314 0.0498,-0.0472 0.0921,-0.0472 0.0382,0 0.0684,0.0142 0.0905,0.0426 0.0121,0.0142 0.0191,0.0294 0.0211,0.0457l0.0091 0.0121 0 0.0244 0 0.0274 0 0.0213c0.0342,-0.0502 0.085,-0.0918 0.1525,-0.1248 0.0674,-0.0324 0.1454,-0.0487 0.234,-0.0487 0.2214,0 0.3819,0.0781 0.4816,0.2338 0.0996,0.1557 0.1494,0.4112 0.1494,0.7677 0,0.2424 -0.0528,0.4244 -0.159,0.5466 -0.1062,0.1222 -0.2551,0.1831 -0.4474,0.1831 -0.1318,0 -0.243,-0.0315 -0.3331,-0.0943l-0.0151 -0.0122 -0.0207 -0.0152 -0.015 -0.0122 -0.0061 -0.0091 -0.0211 -0.0274 0 0.0213 0 0.0213 0 0.0578 0 0.4472c0,0.1014 -0.0373,0.1521 -0.1117,0.1521 -0.0865,0 -0.1298,-0.0537 -0.1298,-0.1612zm0.2324 -1.2109c0,0.2039 0.0257,0.3514 0.077,0.4417 0.0514,0.0907 0.1344,0.1425 0.2491,0.1546 0.0363,0.0041 0.0625,0.0061 0.0785,0.0061 0.1249,0 0.218,-0.0426 0.2793,-0.1283 0.0615,-0.0857 0.0921,-0.2211 0.0921,-0.4066 0,-0.2444 -0.0211,-0.4168 -0.0629,-0.5167 -0.0418,-0.0999 -0.1197,-0.1643 -0.2334,-0.1927 -0.0162,-0.0021 -0.0313,-0.0051 -0.0454,-0.0092 -0.0115,-0.002 -0.0277,-0.003 -0.0478,-0.003 -0.014,0 -0.0287,0.001 -0.0448,0.003 -0.006,0 -0.0221,0.0031 -0.0478,0.0092 -0.1021,0.0243 -0.1751,0.0745 -0.2188,0.1501 -0.0438,0.075 -0.066,0.2043 -0.066,0.3879l-0.0091 0.1039zm1.2803 -0.0091c0,-0.2758 0.0383,-0.4761 0.1147,-0.6009 0.0765,-0.1247 0.2053,-0.2033 0.3866,-0.2358 0.0201,-0.002 0.0402,-0.0045 0.0603,-0.0076 0.0202,-0.003 0.0433,-0.0045 0.0695,-0.0045 0.0342,0 0.0619,0.002 0.083,0.006 0.0212,0.0041 0.0368,0.0061 0.0468,0.0061 0.1892,0.0345 0.3191,0.1253 0.3895,0.2723 0.0705,0.1471 0.1057,0.395 0.1057,0.7439 0,0.2008 -0.0408,0.3529 -0.1223,0.4564 -0.0815,0.1034 -0.2058,0.1703 -0.3729,0.2008 -0.0382,0.0081 -0.0815,0.0121 -0.1298,0.0121 -0.0262,0 -0.0523,0 -0.0785,0 -0.0241,-0.0061 -0.0413,-0.0101 -0.0513,-0.0121 -0.1813,-0.0325 -0.3101,-0.1106 -0.3866,-0.2343 -0.0764,-0.1237 -0.1147,-0.3245 -0.1147,-0.6024zm0.2386 0l0 0.1004c0,0.1907 0.0321,0.3271 0.0971,0.4092 0.0644,0.0821 0.1625,0.1232 0.2939,0.1232 0.1313,0 0.2294,-0.0411 0.2939,-0.1232 0.0649,-0.0821 0.0971,-0.2185 0.0971,-0.4092l0 -0.2038c0,-0.1887 -0.0322,-0.3241 -0.0971,-0.4062 -0.0645,-0.0822 -0.1626,-0.1232 -0.2939,-0.1232 -0.1314,0 -0.2295,0.041 -0.2939,0.1232 -0.065,0.0821 -0.0971,0.2175 -0.0971,0.4062l0 0.1034zm1.3436 0.718l0 -1.4421c0,-0.0994 0.0377,-0.1491 0.1132,-0.1491 0.0357,-0.004 0.065,0.0061 0.0881,0.0304 0.0226,0.0244 0.0342,0.0599 0.0342,0.1065l0 0.0305 0 0.0121c0.0201,-0.0385 0.0499,-0.0715 0.0896,-0.0989 0.0393,-0.0273 0.0805,-0.0456 0.1227,-0.0547 0.0428,-0.0091 0.0791,-0.0137 0.1093,-0.0137 0.012,0 0.0282,0.002 0.0488,0.0061 0.0764,0.0121 0.1344,0.0345 0.1726,0.0669 0.0387,0.0325 0.0579,0.0669 0.0579,0.1035 0,0.0324 -0.0106,0.0593 -0.0317,0.0806 -0.0211,0.0213 -0.0458,0.0319 -0.074,0.0319 -0.0081,0 -0.0181,-0.002 -0.0302,-0.0061l-0.0816 -0.0304c-0.0301,-0.0122 -0.0583,-0.0182 -0.0844,-0.0182 -0.0082,0 -0.0262,0.002 -0.0544,0.006 -0.0826,0.0122 -0.1439,0.0477 -0.1842,0.1065 -0.0403,0.0588 -0.0604,0.1471 -0.0604,0.2647l0 0.9705c0,0.0548 -0.0206,0.0944 -0.0619,0.1187 -0.0226,0.0122 -0.0442,0.0183 -0.0649,0.0183 -0.0579,0 -0.0941,-0.0274 -0.1087,-0.0822l0 -0.0578zm0.859 -1.5212l0.0896 0c0.0216,0 0.0327,-0.0183 0.0327,-0.0548l0 -0.3407c0,-0.0669 0.0196,-0.1106 0.0588,-0.1308 0.0227,-0.0122 0.0444,-0.0183 0.065,-0.0183 0.0619,0 0.1002,0.0284 0.1147,0.0852l0 0.0608 0 0.3378c0,0.0182 0.001,0.0314 0.003,0.0395 0.0041,0.0142 0.0172,0.0213 0.0398,0.0213l0.1369 0c0.0387,0 0.0719,0.0086 0.0991,0.0259 0.0277,0.0172 0.0413,0.0451 0.0413,0.0836 0,0.0345 -0.0126,0.0614 -0.0378,0.0807 -0.0251,0.0192 -0.0589,0.0289 -0.1011,0.0289l-0.1269 0c-0.0341,0 -0.0523,0.003 -0.0543,0.0091 0,0.0162 0,0.0314 0,0.0456l0 1.2778c0,0.0386 -0.0111,0.069 -0.0332,0.0913 -0.0221,0.0223 -0.0523,0.0335 -0.0906,0.0335 -0.0362,0 -0.0644,-0.0122 -0.0846,-0.0365 -0.02,-0.0244 -0.0301,-0.0568 -0.0301,-0.0974l0 -1.2748 0 -0.0426 -0.0423 -0.006 -0.0754 0c-0.0504,0 -0.0866,-0.0198 -0.1088,-0.0594 -0.0081,-0.0167 -0.012,-0.0355 -0.012,-0.0563 0,-0.0542 0.0236,-0.0887 0.0714,-0.1034l0.0448 0zm1.5972 0l0.0897 0c0.0216,0 0.0326,-0.0183 0.0326,-0.0548l0 -0.3407c0,-0.0669 0.0197,-0.1106 0.0589,-0.1308 0.0227,-0.0122 0.0443,-0.0183 0.065,-0.0183 0.0618,0 0.1001,0.0284 0.1147,0.0852l0 0.0608 0 0.3378c0,0.0182 0.001,0.0314 0.003,0.0395 0.004,0.0142 0.0171,0.0213 0.0398,0.0213l0.1368 0c0.0387,0 0.072,0.0086 0.0992,0.0259 0.0277,0.0172 0.0413,0.0451 0.0413,0.0836 0,0.0345 -0.0127,0.0614 -0.0379,0.0807 -0.0251,0.0192 -0.0588,0.0289 -0.1011,0.0289l-0.1268 0c-0.0342,0 -0.0523,0.003 -0.0543,0.0091 0,0.0162 0,0.0314 0,0.0456l0 1.2778c0,0.0386 -0.0111,0.069 -0.0333,0.0913 -0.0221,0.0223 -0.0523,0.0335 -0.0906,0.0335 -0.0362,0 -0.0644,-0.0122 -0.0845,-0.0365 -0.0201,-0.0244 -0.0302,-0.0568 -0.0302,-0.0974l0 -1.2748 0 -0.0426 -0.0423 -0.006 -0.0754 0c-0.0503,0 -0.0865,-0.0198 -0.1088,-0.0594 -0.008,-0.0167 -0.012,-0.0355 -0.012,-0.0563 0,-0.0542 0.0236,-0.0887 0.0715,-0.1034l0.0447 0zm0.8108 1.5212l0 -1.4421c0,-0.0994 0.0377,-0.1491 0.1131,-0.1491 0.0357,-0.004 0.065,0.0061 0.0881,0.0304 0.0227,0.0244 0.0343,0.0599 0.0343,0.1065l0 0.0305 0 0.0121c0.02,-0.0385 0.0498,-0.0715 0.0895,-0.0989 0.0393,-0.0273 0.0806,-0.0456 0.1228,-0.0547 0.0427,-0.0091 0.0791,-0.0137 0.1092,-0.0137 0.012,0 0.0282,0.002 0.0488,0.0061 0.0765,0.0121 0.1344,0.0345 0.1726,0.0669 0.0387,0.0325 0.0579,0.0669 0.0579,0.1035 0,0.0324 -0.0105,0.0593 -0.0317,0.0806 -0.0211,0.0213 -0.0458,0.0319 -0.074,0.0319 -0.008,0 -0.0181,-0.002 -0.0302,-0.0061l-0.0815 -0.0304c-0.0302,-0.0122 -0.0584,-0.0182 -0.0845,-0.0182 -0.0081,0 -0.0262,0.002 -0.0544,0.006 -0.0826,0.0122 -0.1439,0.0477 -0.1842,0.1065 -0.0403,0.0588 -0.0603,0.1471 -0.0603,0.2647l0 0.9705c0,0.0548 -0.0207,0.0944 -0.062,0.1187 -0.0226,0.0122 -0.0442,0.0183 -0.0649,0.0183 -0.0578,0 -0.094,-0.0274 -0.1086,-0.0822l0 -0.0578z"/>
     <path id="_43763312" class="fil1" d="M110.087 149.912l0 1.0694c0,0.1162 -0.0383,0.174 -0.1148,0.174 -0.0704,0 -0.1087,-0.035 -0.1147,-0.1055l0 -0.0279 0 -0.0188 -0.012 0.0122 -0.0092 0.0091 -0.0151 0.0122 -0.0216 0.0152 -0.0241 0.0183 -0.0242 0.0152c-0.0871,0.0466 -0.1887,0.07 -0.3039,0.07 -0.0202,0 -0.0362,0 -0.0488,0 -0.0141,0 -0.0243,0 -0.0302,0 -0.1258,-0.0142 -0.2296,-0.0543 -0.3115,-0.1207 -0.0821,-0.0659 -0.1349,-0.1511 -0.1595,-0.2546 -0.0141,-0.0674 -0.0212,-0.1222 -0.0212,-0.1648 0,-0.1506 0.0553,-0.2692 0.1666,-0.3554 0.1112,-0.0867 0.2677,-0.1298 0.4695,-0.1298l0.1122 0 0.0514 0 0.0694 0 0.0151 0 0.0156 0 0.0332 0c0.0322,-0.0061 0.0483,-0.0264 0.0483,-0.0614l0 -0.0674 0 -0.0274c0,-0.2104 -0.1036,-0.3154 -0.311,-0.3154 -0.0161,0 -0.0332,0.001 -0.0514,0.003 -0.018,0.0021 -0.0321,0.0031 -0.0421,0.0031 -0.0585,0.0081 -0.1052,0.0233 -0.1405,0.0456 -0.0352,0.0223 -0.078,0.0649 -0.1283,0.1278l-0.0211 0.0274c-0.0161,0.0203 -0.0413,0.0345 -0.0756,0.0426l-0.0513 0c-0.0583,-0.0162 -0.0875,-0.0558 -0.0875,-0.1187 0,-0.0203 0.007,-0.0446 0.0211,-0.073 0.0241,-0.0466 0.0705,-0.0963 0.1389,-0.1491 0.0785,-0.0608 0.1781,-0.1004 0.2989,-0.1186 0.0403,-0.0061 0.0785,-0.0091 0.1147,-0.0091 0.0403,0 0.0785,0.003 0.1147,0.0091 0.1531,0.0243 0.2663,0.0755 0.3398,0.1541 0.0734,0.0781 0.1102,0.1811 0.1102,0.3093zm-0.2356 0.4219l-0.018 0 -0.0122 0 -0.0547 0 -0.0454 0 -0.0608 0 -0.1395 0c-0.1414,0 -0.243,0.0244 -0.3044,0.0735 -0.0619,0.0492 -0.0926,0.1253 -0.0926,0.2277 0,0.1739 0.0981,0.2733 0.2939,0.2982 0.0146,0.002 0.0357,0.003 0.0639,0.003 0.0282,0 0.0493,-0.002 0.0634,-0.0061 0.2084,-0.035 0.3125,-0.1627 0.3125,-0.3843l0 -0.175 -0.0061 -0.037zm0.5556 -0.0182l0 -0.2008c0,-0.2069 0.0574,-0.3722 0.1722,-0.4959 0.1147,-0.1238 0.2576,-0.1856 0.4287,-0.1856 0.0523,0 0.0992,0.004 0.1403,0.0121 0.0413,0.0082 0.0882,0.0244 0.1405,0.0487 0.0926,0.0406 0.164,0.0913 0.2143,0.1521 0.0444,0.0528 0.0665,0.1035 0.0665,0.1522 0,0.0081 -0.002,0.0202 -0.006,0.0365 -0.0161,0.0486 -0.0503,0.073 -0.1027,0.073 -0.012,0 -0.0256,-0.002 -0.0407,-0.0061 -0.0151,-0.0041 -0.0318,-0.0142 -0.0498,-0.0304l-0.0484 -0.0578 -0.0362 -0.0426c-0.0765,-0.0751 -0.1621,-0.1126 -0.2566,-0.1126 -0.0202,0 -0.0353,0.001 -0.0454,0.003 -0.1107,0.0142 -0.1942,0.0614 -0.2506,0.1415 -0.0564,0.0801 -0.0846,0.2013 -0.0846,0.3636 0,0.2758 0.0253,0.468 0.0756,0.5765 0.0503,0.1085 0.1399,0.1699 0.2687,0.1841 0.0101,0.002 0.0261,0.003 0.0483,0.003 0.0281,0 0.0594,-0.005 0.0936,-0.0152 0.0624,-0.0182 0.1097,-0.0446 0.1419,-0.0791 0.0322,-0.0345 0.0645,-0.0923 0.0966,-0.1734l0.0182 -0.0487c0.0059,-0.0203 0.0195,-0.0375 0.0407,-0.0517 0.0211,-0.0142 0.0418,-0.0213 0.0619,-0.0213 0.0403,0 0.0695,0.0132 0.0875,0.0396 0.0182,0.0263 0.0272,0.0567 0.0272,0.0912 0,0.0325 -0.0065,0.067 -0.0196,0.1035 -0.013,0.0365 -0.0342,0.0781 -0.0644,0.1247 -0.1082,0.1684 -0.2627,0.2525 -0.463,0.2525 -0.2239,0 -0.3894,-0.0659 -0.4956,-0.1977 -0.1062,-0.1319 -0.1591,-0.3448 -0.1591,-0.6389zm1.4887 0.7083l0 -1.9765c0,-0.0756 0.02,-0.1253 0.0603,-0.1496 0.0221,-0.0122 0.0452,-0.0182 0.0695,-0.0182 0.0603,0 0.0955,0.0283 0.1057,0.0851l0 0.067 0 1.0405 0 0.076 0.0542 -0.0517 0.5828 -0.6085c0.0323,-0.0344 0.0675,-0.0517 0.1057,-0.0517 0.0362,0 0.0644,0.0127 0.0846,0.038 0.0201,0.0254 0.0301,0.0513 0.0301,0.0776 0,0.0386 -0.0211,0.0791 -0.0634,0.1217l-0.4282 0.4295 -0.0338 0.0365 0.0212 0.036 0.5314 0.7637c0.0121,0.0162 0.0212,0.0344 0.0272,0.0547 0.0061,0.0203 0.009,0.0365 0.009,0.0487 0,0.0406 -0.016,0.072 -0.0483,0.0943 -0.0201,0.0142 -0.0413,0.0213 -0.0634,0.0213 -0.0462,0 -0.09,-0.0294 -0.1303,-0.0882l-0.4856 -0.7241c-0.0161,-0.0223 -0.0262,-0.0335 -0.0302,-0.0335 -0.0041,0 -0.0162,0.0102 -0.0363,0.0304l-0.0996 0.1015c-0.0181,0.0202 -0.0271,0.0471 -0.0271,0.0796l0 0.4933c0,0.0939 -0.0393,0.141 -0.1178,0.141 -0.0785,0 -0.1177,-0.0446 -0.1177,-0.1344zm1.3436 -0.0421l0 -1.3751c0,-0.0791 0.0191,-0.1288 0.0574,-0.1491 0.0221,-0.0122 0.0442,-0.0182 0.0664,-0.0182 0.0603,0 0.0976,0.0283 0.1117,0.0851l0.006 0.0578 0 1.4026c0,0.0771 -0.0181,0.1278 -0.0543,0.1521 -0.0201,0.0142 -0.0433,0.0213 -0.0695,0.0213 -0.0423,0 -0.0734,-0.0162 -0.0936,-0.0487 -0.008,-0.0121 -0.0141,-0.0274 -0.0181,-0.0456 -0.004,-0.0183 -0.006,-0.0456 -0.006,-0.0822zm0 -1.8254l0 -0.1369c0,-0.0568 0.0206,-0.0963 0.0619,-0.1187 0.0226,-0.0121 0.0442,-0.0182 0.0649,-0.0182 0.0619,0 0.1001,0.0284 0.1147,0.0852l0 0.0456 0 0.1491c0,0.0385 -0.012,0.07 -0.0362,0.0943 -0.0242,0.0243 -0.0543,0.0365 -0.0906,0.0365 -0.0765,0 -0.1147,-0.0456 -0.1147,-0.1369zm0.6371 1.868l0 -1.4355c0,-0.0613 0.02,-0.1039 0.0603,-0.1283 0.0202,-0.0141 0.0433,-0.0212 0.0695,-0.0212 0.0442,0 0.0765,0.0202 0.0965,0.0608l0.0151 0.0426 0 0.0669c0.0141,-0.0228 0.0308,-0.0416 0.0499,-0.0573 0.0191,-0.0157 0.0488,-0.0329 0.0891,-0.0527 0.0403,-0.0198 0.0865,-0.0345 0.1388,-0.0446 0.0524,-0.0107 0.0997,-0.0157 0.1419,-0.0157 0.157,0 0.2829,0.0496 0.3775,0.1495 0.0946,0.0994 0.1419,0.2282 0.1419,0.3869l0 1.0177c0,0.0735 -0.0181,0.1222 -0.0543,0.1466 -0.0201,0.0142 -0.0433,0.0213 -0.0695,0.0213 -0.0503,0 -0.0845,-0.0213 -0.1026,-0.0639 -0.0081,-0.0163 -0.0121,-0.0477 -0.0121,-0.0949l0 -0.9786c0,-0.1116 -0.0201,-0.1947 -0.0609,-0.25 -0.0402,-0.0547 -0.1087,-0.0902 -0.2059,-0.1065 -0.0286,-0.004 -0.0508,-0.0061 -0.0669,-0.0061 -0.0121,0 -0.0241,0 -0.0362,0 -0.0161,0.0041 -0.0282,0.0061 -0.0362,0.0061 -0.1963,0.0386 -0.2945,0.1557 -0.2945,0.3514l0 0.9898c0,0.073 -0.0236,0.1202 -0.0714,0.1405 -0.0161,0.0081 -0.0337,0.0122 -0.0538,0.0122 -0.0418,0 -0.0735,-0.0173 -0.0957,-0.0518 -0.0135,-0.0243 -0.0205,-0.0527 -0.0205,-0.0852zm2.497 -1.4055l-0.003 -0.0305c0,-0.0405 0.0105,-0.0725 0.0316,-0.0958 0.0212,-0.0233 0.0489,-0.035 0.0831,-0.035 0.0221,0 0.0423,0.0041 0.0604,0.0122 0.0443,0.0182 0.0664,0.0629 0.0664,0.1338l0 1.5243c0,0.1764 -0.0518,0.3154 -0.155,0.4168 -0.1031,0.1014 -0.2516,0.1521 -0.4459,0.1521 -0.0442,0 -0.091,-0.003 -0.1393,-0.0091 -0.152,-0.0183 -0.2722,-0.074 -0.3614,-0.1673 -0.0422,-0.0426 -0.0739,-0.0847 -0.0955,-0.1263 -0.0212,-0.0416 -0.0318,-0.0776 -0.0318,-0.108 0,-0.0162 0.0041,-0.034 0.0126,-0.0533 0.0085,-0.0192 0.0226,-0.0354 0.0423,-0.0486 0.0201,-0.0132 0.0423,-0.0198 0.0674,-0.0198 0.0126,0 0.0297,0.0041 0.0519,0.0122 0.0221,0.0081 0.0442,0.0263 0.0674,0.0547l0 0.0061 0.0427 0.073c0.0423,0.073 0.1103,0.1227 0.2039,0.1491 0.0282,0.0061 0.0554,0.0112 0.0805,0.0152 0.0257,0.0041 0.0493,0.0061 0.0714,0.0061 0.1118,0 0.1993,-0.033 0.2632,-0.0989 0.0639,-0.0659 0.0962,-0.1556 0.0962,-0.2692l0 -0.0396 0 -0.0213 -0.0121 -0.076c-0.0141,0.0243 -0.0323,0.0461 -0.0539,0.0654 -0.0221,0.0192 -0.0533,0.039 -0.0931,0.0593 -0.0598,0.0284 -0.1374,0.0426 -0.2309,0.0426 -0.0302,0 -0.0605,0 -0.0902,0 -0.0262,-0.0061 -0.0452,-0.0101 -0.0573,-0.0122 -0.1701,-0.0324 -0.2894,-0.1217 -0.3583,-0.2672 -0.069,-0.1455 -0.1037,-0.3813 -0.1037,-0.7068 0,-0.2201 0.0544,-0.3915 0.1631,-0.5147 0.1086,-0.1232 0.2506,-0.1846 0.4257,-0.1846 0.0362,0 0.0831,0.0041 0.1404,0.0127 0.0574,0.0086 0.1097,0.0258 0.1571,0.0522 0.0472,0.0264 0.0819,0.0583 0.1041,0.0964zm-0.7488 0.6784l0 0.107c0,0.1815 0.0296,0.3129 0.0896,0.3945 0.0598,0.0816 0.1529,0.1222 0.2788,0.1222 0.1258,0 0.2219,-0.0411 0.2888,-0.1237 0.0669,-0.0827 0.1007,-0.2135 0.1007,-0.393l0 -0.2262c0,-0.1571 -0.0242,-0.2722 -0.0721,-0.3458 -0.0477,-0.073 -0.1237,-0.1201 -0.2273,-0.1404 -0.0328,-0.0081 -0.0675,-0.0122 -0.1042,-0.0122 -0.1098,0 -0.1963,0.0431 -0.2598,0.1298 -0.0628,0.0867 -0.0945,0.2165 -0.0945,0.3899l0 0.0979zm2.2555 0.6845l0 -1.3751c0,-0.0791 0.019,-0.1288 0.0574,-0.1491 0.0221,-0.0122 0.0442,-0.0182 0.0663,-0.0182 0.0604,0 0.0977,0.0283 0.1118,0.0851l0.006 0.0578 0 1.4026c0,0.0771 -0.0181,0.1278 -0.0543,0.1521 -0.0202,0.0142 -0.0433,0.0213 -0.0695,0.0213 -0.0423,0 -0.0734,-0.0162 -0.0936,-0.0487 -0.008,-0.0121 -0.0141,-0.0274 -0.0182,-0.0456 -0.0039,-0.0183 -0.0059,-0.0456 -0.0059,-0.0822zm0 -1.8254l0 -0.1369c0,-0.0568 0.0205,-0.0963 0.0618,-0.1187 0.0226,-0.0121 0.0443,-0.0182 0.0649,-0.0182 0.062,0 0.1002,0.0284 0.1148,0.0852l0 0.0456 0 0.1491c0,0.0385 -0.0121,0.07 -0.0363,0.0943 -0.0241,0.0243 -0.0543,0.0365 -0.0905,0.0365 -0.0765,0 -0.1147,-0.0456 -0.1147,-0.1369zm0.637 1.868l0 -1.4355c0,-0.0613 0.0201,-0.1039 0.0604,-0.1283 0.0201,-0.0141 0.0433,-0.0212 0.0695,-0.0212 0.0442,0 0.0765,0.0202 0.0965,0.0608l0.0151 0.0426 0 0.0669c0.0141,-0.0228 0.0308,-0.0416 0.0498,-0.0573 0.0192,-0.0157 0.0489,-0.0329 0.0891,-0.0527 0.0403,-0.0198 0.0866,-0.0345 0.1389,-0.0446 0.0524,-0.0107 0.0996,-0.0157 0.1419,-0.0157 0.157,0 0.2829,0.0496 0.3774,0.1495 0.0947,0.0994 0.142,0.2282 0.142,0.3869l0 1.0177c0,0.0735 -0.0181,0.1222 -0.0543,0.1466 -0.0202,0.0142 -0.0433,0.0213 -0.0695,0.0213 -0.0503,0 -0.0846,-0.0213 -0.1026,-0.0639 -0.0082,-0.0163 -0.0121,-0.0477 -0.0121,-0.0949l0 -0.9786c0,-0.1116 -0.0202,-0.1947 -0.061,-0.25 -0.0402,-0.0547 -0.1086,-0.0902 -0.2058,-0.1065 -0.0287,-0.004 -0.0508,-0.0061 -0.0669,-0.0061 -0.0121,0 -0.0241,0 -0.0362,0 -0.0161,0.0041 -0.0282,0.0061 -0.0362,0.0061 -0.1963,0.0386 -0.2945,0.1557 -0.2945,0.3514l0 0.9898c0,0.073 -0.0236,0.1202 -0.0715,0.1405 -0.016,0.0081 -0.0336,0.0122 -0.0537,0.0122 -0.0418,0 -0.0735,-0.0173 -0.0957,-0.0518 -0.0135,-0.0243 -0.0206,-0.0527 -0.0206,-0.0852zm2.5454 -1.4755l0.3749 1.2352 0.3981 -1.2322c0.02,-0.0547 0.0563,-0.0872 0.1086,-0.0973 0.0363,-0.0061 0.0674,0.003 0.0936,0.0273 0.0267,0.0244 0.0398,0.0538 0.0398,0.0883l-0.0121 0.0639 -0.5711 1.6855 -0.0182 0.0517c-0.0362,0.0933 -0.0754,0.1622 -0.1177,0.2069 -0.0423,0.0446 -0.0967,0.075 -0.1631,0.0912 -0.0181,0.0061 -0.0367,0.0102 -0.0558,0.0122 -0.0192,0.002 -0.0398,0.003 -0.062,0.003 -0.0603,0 -0.1096,-0.0126 -0.1479,-0.038 -0.0382,-0.0253 -0.0594,-0.0563 -0.0633,-0.0928 -0.0102,-0.0771 0.0231,-0.1156 0.0996,-0.1156 0.008,0 0.0241,0.0025 0.0482,0.0076 0.0242,0.0051 0.0464,0.0076 0.0665,0.0076 0.0905,0 0.157,-0.0679 0.1993,-0.2038 0.0201,-0.0609 0.0302,-0.0994 0.0302,-0.1156 0,-0.0041 -0.0041,-0.0203 -0.0121,-0.0487l-0.465 -1.4573c-0.006,-0.0244 -0.009,-0.0467 -0.009,-0.067 0,-0.0283 0.008,-0.0537 0.0241,-0.076 0.0262,-0.0284 0.0583,-0.0426 0.0967,-0.0426 0.0281,0 0.0528,0.0096 0.0739,0.0289 0.0211,0.0193 0.0357,0.0451 0.0438,0.0776zm1.1473 0.7545c0,-0.2758 0.0383,-0.4761 0.1148,-0.6009 0.0765,-0.1247 0.2053,-0.2033 0.3865,-0.2358 0.0202,-0.002 0.0402,-0.0045 0.0603,-0.0076 0.0202,-0.003 0.0433,-0.0045 0.0695,-0.0045 0.0343,0 0.0619,0.002 0.0831,0.006 0.0211,0.0041 0.0367,0.0061 0.0467,0.0061 0.1893,0.0345 0.3191,0.1253 0.3896,0.2723 0.0704,0.1471 0.1057,0.395 0.1057,0.7439 0,0.2008 -0.0408,0.3529 -0.1223,0.4564 -0.0816,0.1034 -0.2058,0.1703 -0.373,0.2008 -0.0382,0.0081 -0.0814,0.0121 -0.1298,0.0121 -0.0262,0 -0.0523,0 -0.0785,0 -0.0241,-0.0061 -0.0413,-0.0101 -0.0513,-0.0121 -0.1812,-0.0325 -0.31,-0.1106 -0.3865,-0.2343 -0.0765,-0.1237 -0.1148,-0.3245 -0.1148,-0.6024zm0.2386 0l0 0.1004c0,0.1907 0.0322,0.3271 0.0972,0.4092 0.0644,0.0821 0.1624,0.1232 0.2938,0.1232 0.1313,0 0.2295,-0.0411 0.2939,-0.1232 0.0649,-0.0821 0.0972,-0.2185 0.0972,-0.4092l0 -0.2038c0,-0.1887 -0.0323,-0.3241 -0.0972,-0.4062 -0.0644,-0.0822 -0.1626,-0.1232 -0.2939,-0.1232 -0.1314,0 -0.2294,0.041 -0.2938,0.1232 -0.065,0.0821 -0.0972,0.2175 -0.0972,0.4062l0 0.1034zm1.3437 0.3468l0 -1.0587c0,-0.0325 0.0049,-0.0599 0.0151,-0.0822 0.01,-0.0223 0.0241,-0.0395 0.0422,-0.0517 0.0181,-0.0122 0.0383,-0.0182 0.0604,-0.0182 0.0423,0 0.0745,0.0182 0.0966,0.0547 0.0141,0.0244 0.0212,0.0558 0.0212,0.0943l0 1.0375c0,0.1034 0.0292,0.1835 0.0875,0.2403 0.0584,0.0568 0.1409,0.0852 0.2476,0.0852 0.2335,0 0.3503,-0.1293 0.3503,-0.3874l0 -0.9507c0,-0.1161 0.0422,-0.1739 0.1268,-0.1739 0.0312,0 0.0564,0.0086 0.0759,0.0258 0.0197,0.0173 0.0318,0.0391 0.0358,0.0654l0 0.0614 0 1.4289c0,0.0573 -0.0181,0.0979 -0.0548,0.1222 -0.0228,0.0162 -0.0494,0.0243 -0.0795,0.0243 -0.0428,0 -0.0726,-0.0152 -0.0891,-0.0456l-0.003 -0.0091 -0.0061 -0.0183 -0.006 -0.0213 0 -0.0152 0 -0.0213 0 -0.0213 -0.0333 0.0457 -0.009 0.0091 -0.0151 0.0091c-0.0765,0.0588 -0.1822,0.0882 -0.3171,0.0882 -0.0704,0 -0.1318,-0.0071 -0.1842,-0.0213 -0.0523,-0.0142 -0.1006,-0.0365 -0.1449,-0.0669 -0.0744,-0.0507 -0.1293,-0.1105 -0.1645,-0.1795 -0.0353,-0.069 -0.0528,-0.1521 -0.0528,-0.2495zm1.552 0.3712l0 -1.4421c0,-0.0994 0.0377,-0.1491 0.1131,-0.1491 0.0357,-0.004 0.065,0.0061 0.0881,0.0304 0.0227,0.0244 0.0343,0.0599 0.0343,0.1065l0 0.0305 0 0.0121c0.02,-0.0385 0.0498,-0.0715 0.0895,-0.0989 0.0393,-0.0273 0.0806,-0.0456 0.1228,-0.0547 0.0427,-0.0091 0.0791,-0.0137 0.1092,-0.0137 0.012,0 0.0282,0.002 0.0489,0.0061 0.0764,0.0121 0.1343,0.0345 0.1725,0.0669 0.0387,0.0325 0.0579,0.0669 0.0579,0.1035 0,0.0324 -0.0105,0.0593 -0.0317,0.0806 -0.0211,0.0213 -0.0458,0.0319 -0.074,0.0319 -0.008,0 -0.0181,-0.002 -0.0302,-0.0061l-0.0815 -0.0304c-0.0302,-0.0122 -0.0584,-0.0182 -0.0845,-0.0182 -0.0081,0 -0.0262,0.002 -0.0544,0.006 -0.0826,0.0122 -0.1439,0.0477 -0.1842,0.1065 -0.0403,0.0588 -0.0603,0.1471 -0.0603,0.2647l0 0.9705c0,0.0548 -0.0207,0.0944 -0.062,0.1187 -0.0226,0.0122 -0.0442,0.0183 -0.0649,0.0183 -0.0578,0 -0.094,-0.0274 -0.1086,-0.0822l0 -0.0578zm1.8237 -0.0127l0 -1.9613c0,-0.1121 0.0392,-0.1678 0.1177,-0.1678 0.068,0 0.1072,0.0283 0.1178,0.0851l0 0.07 0 0.4868 0 0.0426 0 0.0243 0 0.0274 0.018 -0.0243 0.0212 -0.0244 0.009 -0.0061 0.0182 -0.0182c0.0785,-0.073 0.1852,-0.1095 0.32,-0.1095 0.0222,0 0.0463,0.001 0.0725,0.003 0.0262,0.002 0.0513,0.0061 0.0755,0.0122 0.167,0.0345 0.2848,0.1247 0.3532,0.2708 0.0685,0.146 0.1027,0.3823 0.1027,0.7088 0,0.2313 -0.0538,0.4102 -0.161,0.537 -0.1072,0.1268 -0.2506,0.1902 -0.4288,0.1902 -0.0342,0 -0.0724,-0.0036 -0.1147,-0.0107 -0.0418,-0.0071 -0.0831,-0.0182 -0.1234,-0.0334 -0.0401,-0.0153 -0.0734,-0.033 -0.099,-0.0533l-0.0091 -0.0091 -0.0181 -0.0183 -0.0211 -0.0213 -0.0151 -0.0152 0 0.0157 0 0.0284 0 0.0284c-0.0041,0.0254 -0.0172,0.0467 -0.0388,0.0634 -0.0217,0.0167 -0.0468,0.0254 -0.0759,0.0254 -0.0187,0 -0.0393,-0.0061 -0.062,-0.0183 -0.0393,-0.0203 -0.0588,-0.0629 -0.0588,-0.1283zm0.2264 -0.7205l0 0.1004c0,0.1967 0.0312,0.3357 0.0936,0.4168 0.0624,0.0811 0.162,0.1217 0.2989,0.1217 0.1228,0 0.2139,-0.0436 0.2733,-0.1308 0.0593,-0.0873 0.089,-0.2333 0.089,-0.4381l0 -0.1856c0,-0.1805 -0.0326,-0.3109 -0.0985,-0.391 -0.066,-0.0801 -0.1601,-0.1202 -0.2819,-0.1202 -0.1258,0 -0.2179,0.0406 -0.2768,0.1217 -0.0588,0.0812 -0.0885,0.214 -0.0885,0.3986l-0.0091 0.1065zm1.3226 0.7332l0 -1.4421c0,-0.0994 0.0377,-0.1491 0.1131,-0.1491 0.0358,-0.004 0.065,0.0061 0.0882,0.0304 0.0226,0.0244 0.0342,0.0599 0.0342,0.1065l0 0.0305 0 0.0121c0.02,-0.0385 0.0498,-0.0715 0.0895,-0.0989 0.0393,-0.0273 0.0806,-0.0456 0.1228,-0.0547 0.0427,-0.0091 0.0791,-0.0137 0.1092,-0.0137 0.0121,0 0.0282,0.002 0.0489,0.0061 0.0764,0.0121 0.1343,0.0345 0.1726,0.0669 0.0387,0.0325 0.0578,0.0669 0.0578,0.1035 0,0.0324 -0.0105,0.0593 -0.0316,0.0806 -0.0212,0.0213 -0.0459,0.0319 -0.0741,0.0319 -0.008,0 -0.018,-0.002 -0.0301,-0.0061l-0.0816 -0.0304c-0.0302,-0.0122 -0.0584,-0.0182 -0.0845,-0.0182 -0.0081,0 -0.0262,0.002 -0.0544,0.006 -0.0825,0.0122 -0.1439,0.0477 -0.1842,0.1065 -0.0403,0.0588 -0.0603,0.1471 -0.0603,0.2647l0 0.9705c0,0.0548 -0.0207,0.0944 -0.0619,0.1187 -0.0227,0.0122 -0.0443,0.0183 -0.0649,0.0183 -0.0579,0 -0.0941,-0.0274 -0.1087,-0.0822l0 -0.0578zm0.8755 -0.718c0,-0.2758 0.0383,-0.4761 0.1147,-0.6009 0.0766,-0.1247 0.2054,-0.2033 0.3866,-0.2358 0.0201,-0.002 0.0402,-0.0045 0.0603,-0.0076 0.0202,-0.003 0.0433,-0.0045 0.0695,-0.0045 0.0343,0 0.0619,0.002 0.0831,0.006 0.0211,0.0041 0.0367,0.0061 0.0467,0.0061 0.1893,0.0345 0.3191,0.1253 0.3896,0.2723 0.0704,0.1471 0.1057,0.395 0.1057,0.7439 0,0.2008 -0.0408,0.3529 -0.1223,0.4564 -0.0816,0.1034 -0.2058,0.1703 -0.373,0.2008 -0.0382,0.0081 -0.0815,0.0121 -0.1298,0.0121 -0.0262,0 -0.0523,0 -0.0785,0 -0.0241,-0.0061 -0.0413,-0.0101 -0.0513,-0.0121 -0.1812,-0.0325 -0.31,-0.1106 -0.3866,-0.2343 -0.0764,-0.1237 -0.1147,-0.3245 -0.1147,-0.6024zm0.2386 0l0 0.1004c0,0.1907 0.0322,0.3271 0.0972,0.4092 0.0644,0.0821 0.1624,0.1232 0.2938,0.1232 0.1313,0 0.2295,-0.0411 0.2939,-0.1232 0.0649,-0.0821 0.0971,-0.2185 0.0971,-0.4092l0 -0.2038c0,-0.1887 -0.0322,-0.3241 -0.0971,-0.4062 -0.0644,-0.0822 -0.1626,-0.1232 -0.2939,-0.1232 -0.1314,0 -0.2294,0.041 -0.2938,0.1232 -0.065,0.0821 -0.0972,0.2175 -0.0972,0.4062l0 0.1034zm1.4674 -0.7332l0.304 1.2169 0.3085 -1.1865c0.0241,-0.0913 0.0583,-0.1425 0.1026,-0.1536 0.0443,-0.0112 0.0719,-0.0168 0.0821,-0.0168 0.0804,0 0.1358,0.0568 0.166,0.1704l0.312 1.1881 0.3009 -1.2185c0.0242,-0.0872 0.0654,-0.1308 0.1239,-0.1308 0.006,0 0.019,0.002 0.0392,0.006 0.0544,0.0183 0.0816,0.0558 0.0816,0.1126 0,0.0203 -0.0051,0.0527 -0.0152,0.0974l-0.3442 1.2626 -0.0151 0.0578 -0.0181 0.0608c-0.0261,0.0811 -0.0765,0.1217 -0.151,0.1217 -0.0181,0 -0.0382,-0.003 -0.0603,-0.0091 -0.0323,-0.0122 -0.0579,-0.0325 -0.077,-0.0609 -0.0192,-0.0284 -0.0388,-0.0791 -0.0589,-0.1521l-0.2929 -1.1378 -0.2899 1.1378c-0.0201,0.073 -0.0393,0.1237 -0.0573,0.1521 -0.0182,0.0284 -0.0443,0.0487 -0.0785,0.0609 -0.0222,0.0061 -0.0433,0.0091 -0.0634,0.0091 -0.0766,0 -0.1259,-0.0406 -0.148,-0.1217l-0.0166 -0.0613 -0.0191 -0.0573 -0.3417 -1.2626c-0.0101,-0.0447 -0.0151,-0.0781 -0.0151,-0.1004 0,-0.0548 0.0262,-0.0913 0.0785,-0.1096 0.008,-0.004 0.0151,-0.006 0.0211,-0.006 0.01,0 0.0171,0 0.0211,0 0.0604,0 0.1007,0.0436 0.1208,0.1308zm1.9657 1.2443c0,-0.0831 0.0383,-0.1247 0.1147,-0.1247 0.006,0 0.0182,0.002 0.0363,0.0061 0.0181,0.004 0.0337,0.0116 0.0468,0.0228 0.0131,0.0111 0.0296,0.0269 0.0498,0.0471 0.0724,0.067 0.1519,0.1136 0.2386,0.14 0.0664,0.0182 0.1267,0.0274 0.1811,0.0274 0.0926,0 0.1686,-0.0188 0.2279,-0.0563 0.0594,-0.0375 0.0972,-0.0877 0.1133,-0.1506 0.008,-0.0365 0.0121,-0.0619 0.0121,-0.0761 0,-0.1257 -0.0816,-0.2069 -0.2446,-0.2434l-0.1177 -0.0273 -0.0484 -0.0092 -0.0906 -0.0182c-0.159,-0.0365 -0.2752,-0.0898 -0.3487,-0.1598 -0.0735,-0.0699 -0.1102,-0.1607 -0.1102,-0.2722 0,-0.0325 0.003,-0.067 0.009,-0.1035 0.0182,-0.1115 0.0795,-0.2048 0.1842,-0.2799 0.1047,-0.075 0.2336,-0.1126 0.3865,-0.1126 0.0161,0 0.0332,0 0.0513,0 0.0242,0.0041 0.0463,0.0071 0.0665,0.0092 0.0201,0.002 0.0462,0.0071 0.0785,0.0152 0.0322,0.0081 0.0634,0.0182 0.0936,0.0304 0.1026,0.0385 0.1771,0.0852 0.2234,0.14 0.0403,0.0466 0.0554,0.0922 0.0453,0.1369 -0.0156,0.0588 -0.0519,0.0882 -0.1082,0.0882 -0.0156,0 -0.0271,-0.002 -0.0347,-0.0061l-0.0352 -0.0182 -0.0519 -0.0426c-0.0342,-0.0284 -0.0659,-0.0502 -0.0941,-0.0655 -0.0287,-0.0152 -0.0598,-0.0278 -0.0946,-0.038 -0.004,-0.002 -0.0131,-0.0045 -0.0277,-0.0076 -0.0141,-0.003 -0.0291,-0.0061 -0.0452,-0.0091 -0.0167,-0.0031 -0.0428,-0.0046 -0.0796,-0.0046 -0.0443,0 -0.085,0.0061 -0.1218,0.0183 -0.0362,0.0121 -0.0709,0.0304 -0.1031,0.0547 -0.0589,0.0467 -0.0886,0.1035 -0.0886,0.1704 0,0.073 0.0322,0.1278 0.0966,0.1643 0.0262,0.0162 0.0513,0.0279 0.0756,0.035 0.0241,0.0071 0.0693,0.0177 0.1358,0.0319l0.0785 0.0183 0.0905 0.0182c0.3121,0.0751 0.4681,0.2272 0.4681,0.4564 0,0.0507 -0.0071,0.1034 -0.0212,0.1582 -0.0281,0.1136 -0.0945,0.2059 -0.1992,0.2769 -0.1047,0.071 -0.2356,0.1065 -0.3926,0.1065 -0.0422,0 -0.0926,-0.0036 -0.1509,-0.0107 -0.0584,-0.0071 -0.1198,-0.0248 -0.1842,-0.0532 -0.1067,-0.0487 -0.1852,-0.0974 -0.2355,-0.1461 -0.0503,-0.0487 -0.0755,-0.0943 -0.0755,-0.1369zm2.5634 -0.4411l-0.8122 0c-0.018,0 -0.0282,0.001 -0.0301,0.003 -0.0041,0.0041 -0.0061,0.0173 -0.0061,0.0396 0,0.0223 0,0.0441 0,0.0654 0,0.0213 0,0.0431 0,0.0654 0,0.0994 0.0277,0.1815 0.0836,0.2464 0.0553,0.0649 0.1263,0.1065 0.2133,0.1248 0.0343,0.006 0.0674,0.0091 0.0997,0.0091 0.1393,0 0.2506,-0.069 0.3336,-0.2069 0.0261,-0.0426 0.0463,-0.0705 0.0604,-0.0837 0.0141,-0.0131 0.0332,-0.0218 0.0574,-0.0258 0.0383,-0.0102 0.0704,-0.0021 0.0956,0.0243 0.0251,0.0264 0.0337,0.0609 0.0256,0.1035 -0.002,0.0284 -0.017,0.0659 -0.0452,0.1125 -0.0282,0.0467 -0.0605,0.0872 -0.0967,0.1217 -0.0885,0.0893 -0.1983,0.144 -0.3291,0.1643 -0.0241,0.002 -0.0473,0.0046 -0.0695,0.0076 -0.0221,0.0031 -0.0462,0.0046 -0.0724,0.0046 -0.4025,0 -0.6039,-0.288 -0.6039,-0.8641 0,-0.292 0.0529,-0.5065 0.1586,-0.6434 0.1056,-0.1369 0.2621,-0.2054 0.4695,-0.2054 0.1872,0 0.3321,0.0614 0.4348,0.1841 0.1026,0.1227 0.1539,0.3057 0.1539,0.5491l0 0.0578c0,0.0609 -0.0049,0.0994 -0.0151,0.1156 -0.01,0.0163 -0.0352,0.0264 -0.0754,0.0305l-0.0303 0zm-0.1937 -0.213c0.0388,0 0.061,-0.0051 0.0669,-0.0152 0.0061,-0.0122 0.0091,-0.0477 0.0091,-0.1065l-0.006 -0.0578c-0.0182,-0.1055 -0.0569,-0.1866 -0.1152,-0.2434 -0.0584,-0.0568 -0.1334,-0.0852 -0.2245,-0.0852 -0.0443,0 -0.083,0.0051 -0.1152,0.0152 -0.1354,0.0365 -0.2205,0.1369 -0.2547,0.3012l-0.009 0.0609c-0.002,0.0162 -0.0035,0.0334 -0.0046,0.0517 -0.001,0.0183 -0.0015,0.0294 -0.0015,0.0335 0,0.0223 0.0041,0.0355 0.0121,0.0395 0.0061,0.0041 0.0221,0.0061 0.0488,0.0061l0.5938 0zm0.6377 0.861l0 -1.4421c0,-0.0994 0.0377,-0.1491 0.1131,-0.1491 0.0357,-0.004 0.065,0.0061 0.0881,0.0304 0.0227,0.0244 0.0343,0.0599 0.0343,0.1065l0 0.0305 0 0.0121c0.02,-0.0385 0.0498,-0.0715 0.0895,-0.0989 0.0393,-0.0273 0.0806,-0.0456 0.1228,-0.0547 0.0427,-0.0091 0.0791,-0.0137 0.1092,-0.0137 0.012,0 0.0282,0.002 0.0489,0.0061 0.0764,0.0121 0.1343,0.0345 0.1725,0.0669 0.0387,0.0325 0.0579,0.0669 0.0579,0.1035 0,0.0324 -0.0105,0.0593 -0.0317,0.0806 -0.0211,0.0213 -0.0458,0.0319 -0.074,0.0319 -0.008,0 -0.0181,-0.002 -0.0302,-0.0061l-0.0815 -0.0304c-0.0302,-0.0122 -0.0584,-0.0182 -0.0845,-0.0182 -0.0081,0 -0.0262,0.002 -0.0544,0.006 -0.0826,0.0122 -0.1439,0.0477 -0.1842,0.1065 -0.0403,0.0588 -0.0603,0.1471 -0.0603,0.2647l0 0.9705c0,0.0548 -0.0207,0.0944 -0.062,0.1187 -0.0226,0.0122 -0.0442,0.0183 -0.0649,0.0183 -0.0578,0 -0.094,-0.0274 -0.1086,-0.0822l0 -0.0578z"/>
    </g>
    <g>
     <path id="_43761792" class="fil2" d="M90.3316 131.038c4.5986,0 7.6399,3.7293 6.7914,8.3279 -0.8485,4.5987 -5.2658,8.328 -9.8644,8.328 -4.5986,0 -7.64,-3.7293 -6.7915,-8.328 0.8485,-4.5986 5.2658,-8.3279 9.8645,-8.3279zm-0.3782 0.0945c4.1107,0 6.8294,3.3336 6.0709,7.4444 -0.7585,4.1107 -4.7071,7.4444 -8.8179,7.4444 -4.1107,0 -6.8294,-3.3337 -6.0709,-7.4444 0.7585,-4.1108 4.7071,-7.4444 8.8179,-7.4444z"/>
     <path id="_43675552" class="fil2" d="M89.302 147.076c0.2057,-0.7773 0.2968,-1.6556 0.7468,-2.3321 0.2903,-0.4364 0.7697,-0.9685 0.5803,-1.0681 -0.5589,-0.2941 -2.414,-0.4619 -3.0411,-0.4925 -0.9394,-0.0458 -2.57,0.3039 -3.0914,-0.5624 -0.6445,-1.1902 0.1404,-2.4108 0.4604,-3.5807 0.4162,-0.9731 -0.0309,-2.0413 -0.3106,-3.0025 -0.108,-0.5844 0.2843,-1.1048 0.3846,-1.6633 0.0027,-0.1053 0.2231,-1.0651 0.0122,-1.4028 -0.4564,-0.7305 -0.5473,-1.3703 0.1989,-2.0124 0.8214,-0.7067 2.8778,-0.0408 2.5288,1.2029 -0.063,0.2246 -0.0753,0.3153 0.0247,0.5185 0.2163,0.3492 0.1486,0.2226 -0.1314,0.3289 -0.0758,0.2842 -0.1862,0.5763 -0.302,0.8475 -0.2224,0.1543 -0.5905,0.0427 -0.8373,0 -0.0249,0.1864 -0.0964,0.3337 -0.1471,0.5143l-0.0056 0.0019c1.1887,0.6229 1.5989,1.9723 1.2969,3.3598 -0.0833,0.383 -0.1718,0.6286 -0.0649,0.9412 0.0559,0.1635 0.5892,0.1258 0.8736,0.1629 0.8731,0.114 1.7039,0.3323 2.586,0.3323 0.2512,0 0.4034,0.5559 0.4034,0.5559 -0.3023,0.2598 -0.8353,0.0594 -1.2455,0.02 -0.8647,-0.083 -1.7828,-0.0772 -2.6467,0.0199l-0.0968 1.3107c-0.0026,0.0357 0.1865,0.0921 0.4635,0.1558 1.6371,0.3761 3.1733,0.5263 4.4753,1.5974 0.4301,0.3538 -1.079,2.2475 -1.9173,3.6437 -0.4582,0.1517 -0.7182,0.5442 -1.1977,0.6032z"/>
     <path id="_43673984" class="fil3" d="M91.0591 141.029c0.0255,0.0007 0.0511,0.001 0.0769,0.001 0.6987,0 1.4181,-0.1709 1.9416,-0.6243 0.5234,-0.4534 0.696,-1.0544 0.7342,-1.6913l0.1815 -3.0224c-0.4816,0 -1.0678,0.8239 -1.0913,1.2153l-0.1218 2.0293c-0.0344,0.5726 -0.5424,1.0347 -1.1395,1.131 -0.5725,0.0924 -1.2447,0.0132 -1.8225,0.0132 -0.4529,0 -1.3934,0.4905 -1.421,0.9492l2.6619 0 0 -0.001z"/>
     <path id="_43669856" class="fil3" d="M135.488 147.338c-0.4381,0 -0.821,-0.1436 -1.1487,-0.427 -0.3276,-0.2835 -0.4896,-0.6812 -0.4896,-1.1892 0,-0.4492 0.1546,-0.8284 0.4675,-1.1414 0.313,-0.3129 0.6959,-0.4675 1.1524,-0.4675 0.4529,0 0.8394,0.1546 1.1598,0.4675 0.3203,0.313 0.4786,0.6922 0.4786,1.1414 0,0.5007 -0.162,0.8983 -0.486,1.1855 -0.324,0.2871 -0.6995,0.4307 -1.134,0.4307z"/>
     <path id="_43668712" class="fil1" d="M134.291 140.24l-0.3461 -5.1654c-0.0626,-1.0051 -0.0957,-1.7267 -0.0957,-2.1648 0,-0.6001 0.1546,-1.064 0.4675,-1.3991 0.313,-0.335 0.7253,-0.5007 1.2371,-0.5007 0.6185,0 1.0309,0.2136 1.2407,0.6406 0.2099,0.4271 0.313,1.0456 0.313,1.8519 0,0.475 -0.0258,0.9536 -0.0774,1.4433l-0.4638 5.3163c-0.0479,0.6333 -0.1547,1.1193 -0.3204,1.458 -0.1656,0.335 -0.4418,0.5043 -0.821,0.5043 -0.3902,0 -0.659,-0.1619 -0.8099,-0.4896 -0.151,-0.3277 -0.2578,-0.8247 -0.324,-1.4948z"/>
     <path id="_43670640" class="fil1" d="M129.988 133.922l-3.494 0 0 11.4869c0,0.659 -0.1472,1.1524 -0.4418,1.4727 -0.2945,0.3203 -0.6774,0.4786 -1.145,0.4786 -0.4712,0 -0.8578,-0.162 -1.156,-0.486 -0.2982,-0.3239 -0.4492,-0.8136 -0.4492,-1.4653l0 -11.4869 -3.4939 0c-0.5486,0 -0.9536,-0.1214 -1.2187,-0.3607 -0.2687,-0.2431 -0.4013,-0.5597 -0.4013,-0.9573 0,-0.4087 0.1399,-0.7327 0.4161,-0.9683 0.2761,-0.2393 0.6774,-0.3571 1.2039,-0.3571l10.1799 0c0.5559,0 0.9646,0.1215 1.237,0.3682 0.2688,0.2429 0.405,0.5633 0.405,0.9572 0,0.3976 -0.1399,0.7142 -0.4124,0.9573 -0.2724,0.2393 -0.6811,0.3607 -1.2296,0.3607z"/>
     <path id="_43668544" class="fil1" d="M111.012 142.342c0,0.9572 -0.2467,1.8187 -0.74,2.5808 -0.4897,0.7621 -1.2113,1.3586 -2.1612,1.7893 -0.9498,0.4308 -2.0727,0.648 -3.3761,0.648 -1.561,0 -2.8459,-0.2945 -3.862,-0.8836 -0.718,-0.4271 -1.3034,-0.9904 -1.7526,-1.7009 -0.4491,-0.7069 -0.6737,-1.3954 -0.6737,-2.0654 0,-0.3866 0.1362,-0.7217 0.405,-0.9978 0.2687,-0.2761 0.6112,-0.416 1.0309,-0.416 0.3387,0 0.6222,0.1104 0.8578,0.324 0.232,0.2172 0.4308,0.5375 0.5964,0.9609 0.2025,0.5044 0.4197,0.9241 0.6554,1.2628 0.2319,0.335 0.5633,0.6148 0.9867,0.8357 0.4234,0.2173 0.9793,0.3277 1.6715,0.3277 0.9498,0 1.7193,-0.2209 2.312,-0.6627 0.5928,-0.4418 0.891,-0.9941 0.891,-1.6567 0,-0.5229 -0.1583,-0.9499 -0.4786,-1.2776 -0.3203,-0.3277 -0.7363,-0.578 -1.2407,-0.7474 -0.5081,-0.173 -1.1855,-0.3571 -2.036,-0.5522 -1.134,-0.2651 -2.0875,-0.5781 -2.8533,-0.9315 -0.7658,-0.3571 -1.3733,-0.8431 -1.8224,-1.4579 -0.4492,-0.6149 -0.6738,-1.377 -0.6738,-2.2901 0,-0.8689 0.2356,-1.642 0.7106,-2.3194 0.4749,-0.6738 1.1634,-1.1929 2.0617,-1.5574 0.8984,-0.3645 1.955,-0.5449 3.17,-0.5449 0.9719,0 1.8113,0.1215 2.5182,0.3608 0.7106,0.243 1.296,0.5596 1.7636,0.961 0.4675,0.3976 0.8099,0.8173 1.0272,1.2554 0.2135,0.4381 0.3239,0.8652 0.3239,1.2849 0,0.3792 -0.1362,0.7216 -0.4049,1.0272 -0.2688,0.3056 -0.6075,0.4602 -1.0088,0.4602 -0.3682,0 -0.6443,-0.092 -0.8358,-0.2761 -0.1914,-0.1804 -0.3976,-0.4823 -0.6185,-0.8983 -0.2908,-0.5965 -0.6333,-1.064 -1.0382,-1.3991 -0.4013,-0.335 -1.0493,-0.5007 -1.9403,-0.5007 -0.8284,0 -1.4948,0.1804 -1.9991,0.5449 -0.5081,0.3645 -0.7622,0.7989 -0.7622,1.3107 0,0.3166 0.0847,0.589 0.2578,0.8173 0.173,0.232 0.4123,0.4308 0.7142,0.5965 0.3019,0.1619 0.6075,0.2945 0.9168,0.3865 0.3092,0.0921 0.8173,0.2283 1.5315,0.4087 0.891,0.2099 1.6973,0.4381 2.4189,0.6922 0.7253,0.2503 1.3365,0.5559 1.8445,0.9167 0.5081,0.3571 0.9021,0.8136 1.1855,1.3622 0.2835,0.5523 0.4271,1.226 0.4271,2.0213z"/>
     <path id="_43667368" class="fil3" d="M114.302 131.01c0.4382,0 0.8211,0.1436 1.1487,0.4271 0.3277,0.2835 0.4897,0.6811 0.4897,1.1892 0,0.4491 -0.1546,0.8284 -0.4676,1.1413 -0.3129,0.313 -0.6958,0.4676 -1.1523,0.4676 -0.4529,0 -0.8395,-0.1546 -1.1598,-0.4676 -0.3203,-0.3129 -0.4786,-0.6922 -0.4786,-1.1413 0,-0.5007 0.162,-0.8984 0.486,-1.1855 0.324,-0.2872 0.6995,-0.4308 1.1339,-0.4308z"/>
     <path id="_43664872" class="fil1" d="M115.499 138.108l0.3461 5.1654c0.0626,1.0051 0.0957,1.7268 0.0957,2.1649 0,0.6001 -0.1546,1.064 -0.4676,1.399 -0.3129,0.335 -0.7252,0.5007 -1.237,0.5007 -0.6185,0 -1.0309,-0.2135 -1.2408,-0.6406 -0.2098,-0.427 -0.3129,-1.0456 -0.3129,-1.8519 0,-0.4749 0.0258,-0.9535 0.0773,-1.4432l0.4639 -5.3164c0.0479,-0.6332 0.1546,-1.1192 0.3203,-1.4579 0.1657,-0.335 0.4418,-0.5044 0.821,-0.5044 0.3903,0 0.6591,0.162 0.81,0.4897 0.151,0.3276 0.2577,0.8247 0.324,1.4947z"/>
     <path id="_43663432" class="fil3" d="M86.0926 142.951c0.0248,-0.0006 0.0499,-0.0009 0.0749,-0.0009 0.6801,0 1.3603,0.1663 1.8168,0.6076 0.4565,0.4413 0.5542,1.0262 0.517,1.6461l-0.0429 0.9657c-0.3298,0.0534 -0.6627,0.0863 -0.997,0.0976l0.0618 -1.2795c0.0269,-0.5577 -0.407,-1.0071 -0.9769,-1.1009 -0.2924,-0.0481 -2.6072,-0.0484 -4.4991,-0.0383 -0.2278,-0.2782 -0.4291,-0.5787 -0.6025,-0.8981l4.6479 0.0007z"/>
    </g>
   </g>
  </g>
 </g>
</svg>
